<svg xmlns="http://www.w3.org/2000/svg" width="150" height="50" viewBox="0,0,150,50"><path fill="#f0f083" d="M71.35 19.73L71.32 19.70L71.28 19.66Q69.29 19.76 68.34 19.91L68.38 19.96L68.30 19.87Q66.73 20.16 65.51 20.70L65.59 20.78L65.45 20.64Q61.94 22.08 61.83 26.76L61.91 26.84L61.83 26.77Q61.76 29.44 62.41 32.37L62.44 32.40L62.48 32.44Q63.42 36.54 67.04 37.72L66.86 37.55L66.87 37.56Q68.89 38.24 70.34 38.09L70.22 37.97L70.78 38.07L70.67 37.96Q71.00 38.11 71.19 38.15L71.08 38.03L71.13 38.08Q71.32 38.12 71.48 38.09L71.38 37.99L71.47 38.08Q74.12 37.83 75.49 37.26L75.40 37.18L71.86 33.68L71.86 33.67Q72.13 33.29 72.74 32.68L72.75 32.70L73.68 31.79L73.65 31.77Q75.52 33.87 77.50 35.92L77.60 36.02L77.58 36.01Q79.90 34.17 80.16 28.80L80.12 28.76L80.02 28.66Q80.11 27.76 80.11 26.84L80.16 26.90L80.18 26.92Q80.22 21.29 75.16 20.18L75.04 20.06L75.09 20.12Q73.71 19.72 71.20 19.57ZM84.12 41.78L84.02 41.68L84.14 41.81Q83.57 42.26 82.39 43.13L82.32 43.06L77.85 39.32L77.95 39.42Q75.47 40.64 71.21 40.67L71.11 40.57L71.19 40.66Q64.65 40.78 61.84 38.53L61.88 38.58L61.77 38.47Q60.01 36.70 59.55 33.73L59.53 33.71L59.56 33.74Q59.35 31.93 58.97 28.35L58.93 28.32L58.95 28.34Q58.88 27.54 58.77 25.79L58.80 25.83L58.77 25.79Q58.65 24.27 58.69 23.39L58.82 23.52L58.74 23.44Q58.88 20.43 60.63 18.87L60.53 18.77L60.52 18.75Q62.04 17.41 65.23 16.92L65.36 17.05L65.36 17.05Q67.82 16.65 70.72 16.73L70.74 16.75L70.78 16.80Q78.09 16.72 81.21 19.08L81.26 19.13L81.33 19.20Q83.49 21.31 83.22 26.23L83.19 26.20L83.27 26.28Q82.97 29.82 82.78 31.15L82.82 31.19L82.84 31.21Q82.09 35.60 79.77 37.92L79.80 37.96L79.79 37.94Q81.29 39.21 84.03 41.69ZM79.21 17.46L79.30 17.55L79.21 17.46Q77.13 16.68 70.62 16.18L70.79 16.34L70.77 16.33Q69.35 16.31 66.57 16.43L66.51 16.36L66.62 16.48Q62.22 16.53 59.97 18.51L60.03 18.56L60.13 18.66Q58.36 20.01 58.36 23.17L58.48 23.30L58.43 23.24Q58.40 24.06 58.55 25.77L58.46 25.68L58.52 25.73Q58.61 27.39 58.61 28.27L58.76 28.41L58.70 28.35Q58.80 30.05 59.18 33.63L59.21 33.66L59.31 33.76Q59.58 36.54 61.18 38.60L61.07 38.49L61.16 38.58Q61.49 39.40 62.71 40.55L62.82 40.66L62.68 40.52Q65.37 42.49 70.55 42.75L70.75 42.95L70.66 42.87Q71.01 42.87 73.40 42.98L73.43 43.01L73.44 43.02Q78.26 43.20 80.55 42.13L80.45 42.03L80.47 42.05Q81.35 42.74 86.07 46.32L86.14 46.39L86.01 46.26Q86.69 45.80 87.98 44.81L88.06 44.89L88.02 44.85Q87.02 44.03 86.22 43.35L86.22 43.35L84.58 41.90L84.79 41.96L84.65 41.82Q84.23 41.51 83.01 40.48L82.94 40.41L83.02 40.49Q84.79 37.84 84.79 33.31L84.84 33.37L84.84 33.37Q84.79 32.90 84.83 32.06L84.93 32.16L84.90 32.13Q84.95 31.30 84.95 30.89L84.93 30.86L84.88 30.81Q84.84 25.26 84.12 22.90L84.14 22.92L84.26 23.04Q83.80 21.67 82.92 20.60L83.02 20.70L82.90 20.58Q82.09 18.44 79.16 17.41ZM73.12 21.95L73.10 21.93L73.26 22.09Q77.19 21.87 79.01 23.47L79.19 23.64L79.14 23.59Q79.68 24.78 79.79 26.11L79.81 26.12L79.80 26.12Q79.89 27.39 79.81 28.76L79.80 28.74L79.79 28.73Q79.40 33.64 77.46 35.35L77.58 35.47L77.57 35.46Q76.29 34.18 73.77 31.43L73.72 31.38L73.72 31.39Q72.88 32.06 71.32 33.63L71.35 33.66L71.41 33.71Q71.88 34.22 73.02 35.40L73.02 35.40L73.03 35.53L73.00 35.49Q73.49 35.95 74.52 37.02L74.58 37.07L74.53 37.03Q73.62 37.37 71.29 37.67L71.23 37.61L70.65 37.56L70.38 37.71L70.39 37.76L70.24 37.61Q66.80 37.64 64.82 36.00L64.88 36.06L64.94 36.11Q63.80 33.91 63.84 30.79L63.94 30.89L63.89 30.84Q64.06 22.14 73.23 22.06Z"/><path fill="#d9b443" d="M30.35 40.36L30.39 40.39L30.43 40.43Q27.45 36.54 24.82 27.90L24.71 27.79L24.71 27.78Q24.05 25.64 23.25 23.51L23.20 23.45L20.44 32.34L20.51 32.41Q18.63 37.27 16.23 40.51L16.15 40.43L16.26 40.54Q15.44 40.63 13.80 40.79L13.83 40.81L13.74 40.72Q13.92 39.61 13.92 38.35L13.80 38.24L13.87 38.31Q13.89 32.31 11.15 26.18L11.13 26.16L11.07 26.10Q8.02 19.28 2.16 14.29L2.23 14.36L2.05 14.18Q4.19 14.87 6.55 15.41L6.65 15.51L6.57 15.43Q15.26 23.89 16.55 34.85L16.58 34.88L16.50 34.80Q18.20 31.55 19.64 26.18L19.71 26.25L19.77 26.31Q21.67 18.73 22.16 17.32L22.24 17.40L24.47 17.38L24.34 17.25Q25.17 19.41 25.82 21.73L25.77 21.68L26.95 26.07L26.91 26.02Q28.63 31.63 30.04 34.86L29.92 34.75L29.95 34.78Q31.69 23.23 39.61 15.88L39.56 15.83L39.62 15.90Q41.15 15.56 44.12 14.91L44.14 14.93L44.01 14.80Q38.65 19.07 35.60 25.20L35.75 25.34L35.73 25.33Q32.60 31.53 32.60 38.30L32.49 38.19L32.65 38.35Q32.63 39.44 32.71 40.58L32.61 40.48L31.54 40.44L31.51 40.41Q30.85 40.28 30.28 40.28ZM36.69 43.34L36.67 43.32L36.62 43.27Q35.45 39.78 35.57 35.90L35.39 35.72L35.42 35.76Q35.78 24.24 45.15 15.98L45.27 16.09L45.12 15.95Q44.29 16.30 42.34 16.83L42.36 16.84L42.26 16.74Q43.15 15.85 45.06 14.06L45.05 14.05L45.16 14.16Q42.58 15.01 39.65 15.50L39.61 15.46L39.46 15.31Q32.13 22.61 30.23 32.09L30.12 31.98L30.09 31.95Q29.49 30.28 26.64 18.82L26.69 18.87L26.71 18.89Q26.37 19.05 25.42 19.05L25.43 19.06L24.97 17.84L25.14 18.01Q24.86 17.32 24.63 16.82L24.70 16.89L21.80 16.88L21.79 16.87Q20.94 19.29 19.66 24.41L19.70 24.45L19.78 24.53Q18.46 29.61 17.47 32.08L17.52 32.13L17.46 32.07Q15.88 24.17 10.32 17.85L10.33 17.86L10.35 17.88Q9.89 17.84 8.94 17.65L8.87 17.58L8.89 17.60Q8.16 16.76 6.60 15.12L6.55 15.07L6.56 15.08Q3.15 14.26 0.98 13.46L1.11 13.59L1.11 13.59Q6.73 18.22 10.01 24.43L9.92 24.34L10.03 24.45Q13.45 31.03 13.45 38.04L13.40 37.98L13.36 37.95Q13.42 39.56 13.23 41.16L13.29 41.22L13.33 41.26Q13.38 41.09 13.84 40.99L13.95 41.11L13.90 41.06Q14.40 41.00 14.63 41.00L14.59 40.96L14.65 42.05L14.56 41.97Q14.58 42.44 14.65 42.97L14.77 43.08L14.67 42.98Q15.93 43.02 18.21 42.87L18.03 42.69L18.07 42.73Q21.71 37.35 24.45 27.95L24.56 28.05L24.45 27.94Q27.30 36.81 30.27 40.77L30.27 40.77L30.21 40.71Q30.64 40.68 31.47 40.79L31.52 40.84L31.60 40.92Q32.36 41.87 33.43 42.94L33.41 42.91L33.46 42.96Q34.16 42.95 36.56 43.21Z"/><path d="M20 38 C91 5,78 24,141 49" stroke="#7dc9e2" fill="none"/><path d="M13 46 C65 16,59 40,140 10" stroke="#e0e042" fill="none"/><path d="M3 28 C59 12,67 17,147 7" stroke="#db46b6" fill="none"/><path fill="#8ce8d1" d="M124.81 30.99L124.70 30.88L124.68 30.86Q124.89 29.55 124.07 28.63L123.96 28.52L124.08 28.64Q123.14 27.60 121.69 27.64L121.76 27.71L121.71 27.66Q119.38 27.72 118.54 29.86L118.52 29.84L118.50 29.82Q118.33 30.71 118.29 31.40L118.35 31.45L118.24 31.35Q117.96 36.13 117.05 40.47L117.06 40.48L117.09 40.51Q115.43 41.06 113.56 42.05L113.50 41.99L113.61 42.09Q115.79 35.02 115.52 27.71L115.63 27.82L115.54 27.74Q115.19 20.30 112.64 13.49L112.82 13.66L112.81 13.66Q114.60 14.99 116.61 15.67L116.56 15.62L116.64 15.69Q117.93 21.32 118.12 27.19L118.14 27.21L118.21 27.28Q119.68 25.29 122.38 25.36L122.33 25.31L122.37 25.35Q127.35 25.34 127.46 30.71L127.40 30.65L127.38 30.63Q127.54 36.34 128.91 40.99L128.95 41.03L129.05 41.12Q127.09 40.19 125.33 40.00L125.36 40.02L125.41 40.08Q124.88 36.81 124.77 30.95ZM125.06 40.38L124.93 40.24L125.08 40.40Q126.03 40.43 127.13 40.69L127.16 40.73L127.13 40.69Q127.30 40.98 127.83 42.95L127.79 42.92L127.78 42.90Q130.83 43.94 132.85 45.38L132.82 45.36L132.67 45.21Q130.15 39.60 129.61 33.28L129.57 33.23L129.46 33.12Q129.22 29.49 127.81 27.93L127.90 28.02L127.78 27.91Q127.78 27.83 127.14 27.38L127.03 27.27L127.12 27.35Q126.86 26.83 126.21 26.07L126.22 26.08L126.38 26.16L126.30 26.08Q125.37 25.15 122.25 24.89L122.35 24.99L122.32 24.96Q121.54 24.90 120.14 25.25L120.07 25.18L120.08 25.20Q119.99 20.46 119.65 17.95L119.51 17.81L119.58 17.88Q118.89 17.84 117.41 17.53L117.26 17.38L117.28 17.41Q117.13 16.69 116.87 15.20L117.01 15.34L116.87 15.20Q113.97 14.29 112.11 12.73L112.10 12.72L112.11 12.73Q114.98 19.79 115.25 27.59L115.36 27.70L115.19 27.53Q115.53 35.37 112.97 42.72L112.95 42.69L113.12 42.86Q113.92 42.14 115.06 41.64L115.04 41.62L114.29 43.88L114.39 43.98Q117.44 42.57 119.42 42.38L119.43 42.39L119.54 42.50Q120.14 37.13 120.33 33.17L120.25 33.09L120.21 33.05Q120.25 31.15 122.19 30.04L122.28 30.13L122.26 30.11Q122.77 29.86 123.30 29.90L123.33 29.92L123.22 29.82Q123.46 29.91 123.80 29.94L123.87 30.01L124.17 29.97L124.30 30.10Q124.25 30.42 124.36 30.88L124.33 30.86L124.38 30.90Q124.61 36.99 125.10 40.42Z"/><path fill="#6060eb" d="M94.69 39.92L94.64 39.87L94.64 39.87Q90.45 39.30 88.62 37.85L88.65 37.88L88.64 37.88Q86.94 36.56 86.52 33.55L86.45 33.47L86.48 33.51Q86.32 33.00 85.97 28.24L86.06 28.33L85.99 28.26Q86.03 27.08 85.96 25.82L85.95 25.82L86.11 25.98Q85.89 20.88 88.10 19.13L88.01 19.04L88.16 19.20Q90.67 16.95 98.44 16.26L98.46 16.29L98.58 16.40Q99.89 16.23 101.53 16.27L101.44 16.18L101.49 16.23Q101.53 16.28 104.50 16.28L104.44 16.21L104.37 16.14Q105.26 16.19 106.97 16.34L107.07 16.45L107.06 16.43Q106.55 17.37 105.52 20.46L105.44 20.37L105.41 20.34Q103.39 19.20 100.38 19.20L100.33 19.15L100.33 19.14Q99.54 19.11 98.74 19.19L98.80 19.25L98.83 19.28Q93.60 19.61 91.09 21.59L91.20 21.70L91.19 21.70Q89.27 23.39 89.12 26.74L89.09 26.71L88.96 26.58Q89.01 27.28 89.05 28.53L88.96 28.45L89.02 28.50Q89.22 33.43 91.62 35.52L91.60 35.50L91.48 35.38Q93.63 37.31 98.62 37.61L98.65 37.64L98.78 37.77Q101.76 37.78 104.76 35.99L104.74 35.96L104.87 36.10Q105.35 38.71 105.96 40.08L106.00 40.12L106.01 40.13Q103.95 40.43 102.31 40.39L102.22 40.30L102.35 40.42Q97.79 40.29 94.67 39.91ZM109.72 43.57L109.80 43.65L109.88 43.74Q108.11 40.74 107.42 38.15L107.33 38.06L107.37 38.10Q106.96 38.38 105.97 38.76L105.95 38.74L105.92 38.70Q105.52 37.85 105.33 37.01L105.35 37.04L104.98 35.33L105.03 35.38Q101.80 37.48 98.68 37.37L98.70 37.38L98.70 37.38Q94.34 37.10 92.02 35.35L92.02 35.35L91.92 35.26Q90.91 33.56 90.99 30.63L90.99 30.63L90.95 30.59Q91.05 26.04 93.52 23.91L93.57 23.96L93.60 23.98Q95.79 22.15 100.48 21.54L100.37 21.43L100.48 21.54Q101.28 21.42 102.00 21.42L101.90 21.33L101.85 21.27Q104.73 21.37 106.82 22.90L106.75 22.83L106.70 22.77Q107.27 20.72 108.49 17.48L108.54 17.53L108.50 17.50Q108.33 17.59 107.78 17.54L107.68 17.43L107.77 17.52Q107.14 17.39 106.88 17.39L106.96 17.48L106.78 17.30Q107.13 16.92 107.59 15.93L107.60 15.95L107.47 15.82Q107.39 15.96 104.89 15.88L104.87 15.86L104.84 15.83Q102.34 15.75 101.69 15.79L101.66 15.75L101.72 15.82Q91.23 16.17 87.77 18.76L87.75 18.75L87.72 18.72Q85.70 20.54 85.70 24.46L85.70 24.46L85.61 24.37Q85.70 25.57 85.81 28.27L85.77 28.23L85.72 28.17Q85.81 31.69 86.03 33.40L86.13 33.49L86.16 33.52Q86.44 36.55 88.04 38.07L88.12 38.15L88.12 38.15Q88.59 38.82 89.85 39.96L89.79 39.90L89.86 39.97Q93.05 41.68 98.31 42.44L98.42 42.55L98.40 42.53Q104.85 43.50 109.83 43.69Z"/><path fill="#5151d6" d="M46.55 19.59L46.57 19.61L46.70 19.74Q44.70 19.83 43.75 19.98L43.78 20.02L43.72 19.96Q42.16 20.26 40.94 20.80L40.88 20.74L40.81 20.67Q37.40 22.20 37.29 26.89L37.32 26.92L37.32 26.92Q37.21 29.55 37.86 32.48L37.84 32.46L37.82 32.44Q38.63 36.41 42.24 37.59L42.37 37.72L42.32 37.66Q44.21 38.22 45.65 38.07L45.66 38.08L46.01 37.97L45.99 37.95Q46.25 38.02 46.44 38.06L46.51 38.12L46.36 37.97Q46.51 37.97 46.66 37.93L46.70 37.97L46.66 37.93Q49.42 37.80 50.79 37.23L50.68 37.12L47.11 33.59L47.15 33.63Q47.53 33.37 48.14 32.76L48.03 32.64L49.09 31.88L49.11 31.90Q50.84 33.85 52.82 35.91L52.87 35.96L52.83 35.92Q55.11 34.06 55.38 28.69L55.41 28.72L55.42 28.73Q55.53 27.85 55.53 26.94L55.45 26.86L55.49 26.89Q55.59 21.32 50.53 20.22L50.40 20.08L50.48 20.17Q49.11 19.79 46.60 19.64ZM59.32 41.65L59.45 41.77L59.37 41.69Q58.72 42.08 57.54 42.95L57.65 43.06L53.20 39.34L53.25 39.39Q50.80 40.63 46.53 40.66L46.57 40.70L46.57 40.70Q40.01 40.81 37.20 38.56L37.05 38.42L37.07 38.43Q35.33 36.69 34.87 33.72L34.95 33.80L34.88 33.73Q34.67 31.93 34.29 28.35L34.34 28.39L34.37 28.43Q34.26 27.59 34.14 25.84L34.26 25.96L34.11 25.81Q33.99 24.27 34.03 23.40L34.05 23.42L33.98 23.35Q34.10 20.31 35.85 18.75L35.98 18.88L36.01 18.91Q37.41 17.45 40.61 16.96L40.61 16.96L40.70 17.05Q43.10 16.60 46.00 16.68L45.98 16.66L46.07 16.75Q53.60 16.89 56.72 19.25L56.67 19.20L56.64 19.17Q58.89 21.38 58.62 26.29L58.53 26.21L58.56 26.24Q58.32 29.84 58.13 31.17L58.17 31.21L58.18 31.22Q57.52 35.70 55.20 38.02L55.10 37.92L55.14 37.96Q56.72 39.32 59.46 41.79ZM54.65 17.56L54.63 17.54L54.54 17.46Q52.47 16.67 45.96 16.18L45.95 16.18L46.10 16.32Q44.64 16.27 41.86 16.38L41.85 16.38L41.81 16.34Q37.71 16.69 35.46 18.67L35.50 18.70L35.44 18.65Q33.82 20.15 33.82 23.31L33.80 23.29L33.73 23.21Q33.63 23.95 33.78 25.67L33.83 25.72L33.90 25.79Q33.98 27.42 33.98 28.30L33.95 28.28L34.08 28.40Q34.26 30.18 34.64 33.75L34.56 33.68L34.60 33.72Q34.98 36.61 36.58 38.66L36.41 38.49L36.58 38.67Q36.76 39.35 37.98 40.49L37.97 40.47L38.10 40.60Q40.73 42.52 45.91 42.78L45.95 42.82L46.08 42.95Q46.31 42.84 48.71 42.95L48.82 43.06L48.82 43.06Q53.53 43.13 55.82 42.07L55.87 42.12L55.76 42.01Q56.58 42.64 61.30 46.22L61.48 46.40L61.43 46.35Q62.10 45.88 63.39 44.89L63.22 44.71L63.25 44.74Q62.35 44.03 61.55 43.34L61.56 43.35L60.05 42.03L60.06 41.89L60.15 41.99Q59.49 41.44 58.27 40.41L58.19 40.33L58.37 40.51Q60.22 37.94 60.22 33.41L60.11 33.30L60.24 33.43Q60.11 32.89 60.15 32.05L60.31 32.21L60.32 32.22Q60.27 31.29 60.27 30.87L60.32 30.92L60.23 30.83Q60.18 25.26 59.45 22.90L59.63 23.07L59.58 23.03Q59.13 21.66 58.26 20.60L58.21 20.55L58.29 20.63Q57.57 18.58 54.64 17.55ZM48.47 21.97L48.50 22.00L48.62 22.11Q52.66 22.01 54.49 23.61L54.50 23.62L54.52 23.64Q55.01 24.78 55.13 26.11L55.08 26.06L55.21 26.20Q55.29 27.45 55.21 28.82L55.16 28.77L55.22 28.83Q54.85 33.76 52.91 35.47L52.75 35.31L52.93 35.49Q51.45 34.01 48.94 31.27L49.12 31.45L49.08 31.41Q48.24 32.09 46.68 33.65L46.61 33.58L46.59 33.57Q47.21 34.23 48.36 35.41L48.45 35.50L48.38 35.54L48.32 35.48Q48.82 35.95 49.85 37.01L49.82 36.99L49.94 37.11Q48.84 37.26 46.52 37.56L46.55 37.60L46.07 37.65L45.58 37.58L45.65 37.68L45.68 37.72Q42.18 37.68 40.20 36.05L40.29 36.14L40.10 35.94Q39.08 33.85 39.11 30.73L39.29 30.91L39.23 30.85Q39.43 22.18 48.60 22.10Z"/><path d="M5 49 C68 43,69 9,141 25" stroke="#e9e952" fill="none"/><path d="M1 10 C66 12,81 4,143 48" stroke="#bd49e3" fill="none"/><path d="M1 23 C73 46,55 7,137 34" stroke="#ec8cec" fill="none"/></svg>